<svg width="102" height="127" viewBox="0 0 102 127" fill="none" xmlns="http://www.w3.org/2000/svg">
<g id="Eng">
<g id="Group 10">
<path id="Vector 4" d="M12.5 114.5V12C12.5 6.47715 16.9772 2 22.5 2H67.5518C70.3835 2 73.0825 3.20055 74.9787 5.30363L96.9269 29.6462C98.5833 31.4832 99.5 33.869 99.5 36.3426V114.5C99.5 120.023 95.0228 124.5 89.5 124.5H22.5C16.9772 124.5 12.5 120.023 12.5 114.5Z" stroke="white" stroke-width="4"/>
<path id="Vector 5" d="M70.5 2V27.5C70.5 30.2614 72.7386 32.5 75.5 32.5H99" stroke="white" stroke-width="4"/>
<path id="Vector 6" d="M57.5 51.5H7C4.23858 51.5 2 53.7386 2 56.5V77C2 79.7614 4.23858 82 7 82H57.5C60.2614 82 62.5 79.7614 62.5 77V56.5C62.5 53.7386 60.2614 51.5 57.5 51.5Z" fill="white" stroke="white" stroke-width="4"/>
</g>
<path id="Vector 7" d="M29.5 72H7.5C4.73858 72 2.5 69.7614 2.5 67V57C2.5 54.2386 4.73858 52 7.5 52H29.5C32.2614 52 34.5 54.2386 34.5 57V67C34.5 69.7614 32.2614 72 29.5 72Z" fill="#001376" stroke="white" stroke-width="4"/>
<path id="Vector 10" d="M59.5 58H34.5C33.3954 58 32.5 57.1046 32.5 56C32.5 54.8954 33.3954 54 34.5 54H59.5C60.6046 54 61.5 54.8954 61.5 56C61.5 57.1046 60.6046 58 59.5 58Z" fill="#A40000"/>
<path id="Vector 11" d="M59.5 66H34.5C33.3954 66 32.5 65.1046 32.5 64C32.5 62.8954 33.3954 62 34.5 62H59.5C60.6046 62 61.5 62.8954 61.5 64C61.5 65.1046 60.6046 66 59.5 66Z" fill="#A40000"/>
<path id="Vector 12" d="M59.5 74H6.5C5.39543 74 4.5 73.1046 4.5 72C4.5 70.8954 5.39543 70 6.5 70H59.5C60.6046 70 61.5 70.8954 61.5 72C61.5 73.1046 60.6046 74 59.5 74Z" fill="#A40000"/>
<path id="Vector 13" d="M59.5 81H6.5C5.39543 81 4.5 80.1046 4.5 79C4.5 77.8954 5.39543 77 6.5 77H59.5C60.6046 77 61.5 77.8954 61.5 79C61.5 80.1046 60.6046 81 59.5 81Z" fill="#A40000"/>
</g>
</svg>
