<svg width="71" height="76" viewBox="0 0 71 76" fill="none" xmlns="http://www.w3.org/2000/svg">
<path d="M16.9185 21.001V25H3.67383V21.001H16.9185ZM5.34863 0.117188V25H0.22168V0.117188H5.34863ZM15.1924 10.2515V14.1479H3.67383V10.2515H15.1924ZM16.9014 0.117188V4.1333H3.67383V0.117188H16.9014ZM46.7505 0.117188H51.0913L57.4829 18.3862L63.8745 0.117188H68.2153L59.2261 25H55.7397L46.7505 0.117188ZM44.4092 0.117188H48.7329L49.519 17.9248V25H44.4092V0.117188ZM66.2329 0.117188H70.5737V25H65.4468V17.9248L66.2329 0.117188ZM16.2178 72.001V76H3.69092V72.001H16.2178ZM5.34863 51.1172V76H0.22168V51.1172H5.34863ZM61.6528 72.001V76H44.0161V72.001H61.6528ZM61.3965 53.9712L46.2891 76H42.6831V73.0605L57.9102 51.1172H61.3965V53.9712ZM59.6362 51.1172V55.1333H42.7002V51.1172H59.6362Z" fill="white"/>
</svg>
